<svg xmlns="http://www.w3.org/2000/svg" preserveAspectRatio="xMidYMid" width="23" height="23" viewBox="0 0 23 23"><defs><style>.cls-1{fill:#b6b6b6;fill-rule:evenodd}</style></defs><path d="M20 18.246c0-.328 0-.047 0 0zM23.005 2.65l-8.126 8.125c4.424.9 5.034 2.386 5.11 7.13.005.315.007.37.01.34l-.002.385S18.82 21 12 21c-3.166 0-5.106-.51-6.287-1.058L2.65 23.006-.007 20.35l4.077-4.076c.238-3.636 1.26-4.826 5.61-5.61l.763-.763c-1.567-.752-2.68-2.597-2.68-4.765C7.764 2.3 8.388 0 12 0c3.18 0 4.04 1.782 4.202 4.142l4.15-4.148 2.654 2.655z" class="cls-1"/></svg>