<svg xmlns="http://www.w3.org/2000/svg" preserveAspectRatio="xMidYMid" width="20" height="20" viewBox="0 0 20 20"><defs><style>.cls-1{fill:#8f4794;fill-rule:evenodd}</style></defs><path d="M18.167 20H1.833C.82 20 0 19.187 0 18.197V4.017c0-.97.803-1.76 1.78-1.79v2.42c0 1.093.907 1.974 2.026 1.974h1.277c1.118 0 2.038-.88 2.038-1.974V2.218h5.76v2.428c0 1.094.92 1.975 2.037 1.975h1.277c1.12 0 2.026-.88 2.026-1.974v-2.42c.977.03 1.78.82 1.78 1.792v14.18c0 .987-.822 1.802-1.833 1.802zm-.54-2.686V9.99a.783.783 0 0 0-.793-.775H3.13a.783.783 0 0 0-.79.775v7.324c0 .428.354.775.79.775h13.704a.783.783 0 0 0 .792-.776zm-2.768-.283h-1.62a.46.46 0 0 1-.465-.453v-1.584c0-.25.208-.453.464-.453h1.62c.255 0 .463.202.463.453v1.584a.46.46 0 0 1-.464.454zm0-3.958h-1.62a.46.46 0 0 1-.465-.454v-1.584a.46.46 0 0 1 .464-.454h1.62a.46.46 0 0 1 .463.454v1.584a.46.46 0 0 1-.464.454zm-4.05 3.96H9.19a.46.46 0 0 1-.464-.455v-1.584c0-.25.208-.453.464-.453h1.62c.256 0 .464.202.464.453v1.584a.46.46 0 0 1-.464.454zm0-3.96H9.19a.46.46 0 0 1-.464-.454v-1.584a.46.46 0 0 1 .464-.454h1.62a.46.46 0 0 1 .464.454v1.584a.46.46 0 0 1-.464.454zm-4.05 3.96H5.14a.46.46 0 0 1-.463-.455v-1.584c0-.25.208-.453.464-.453h1.62c.258 0 .465.202.465.453v1.584c0 .25-.207.454-.464.454zm0-3.96H5.14a.46.46 0 0 1-.463-.454v-1.584a.46.46 0 0 1 .464-.454h1.62c.258 0 .465.203.465.454v1.584c0 .25-.207.454-.464.454zm9.404-7.748H14.9a.687.687 0 0 1-.694-.68V.68c0-.376.31-.68.695-.68h1.264c.384 0 .695.304.695.68v3.965c0 .375-.312.68-.696.68zm-11.1 0H3.802a.687.687 0 0 1-.694-.68V.68c0-.376.31-.68.695-.68h1.265c.383 0 .694.304.694.68v3.965c0 .375-.312.68-.695.68z" class="cls-1"/></svg>