<svg xmlns="http://www.w3.org/2000/svg" preserveAspectRatio="xMidYMid" width="20" height="20" viewBox="0 0 20 20"><defs><style>.cls-1{fill:#8f4794;fill-rule:evenodd}</style></defs><path d="M10.003 20C4.49 20 .005 15.514.005 10S4.49 0 10.003 0C15.515 0 20 4.486 20 10s-4.485 10-9.997 10zm0-17.872c-4.34 0-7.87 3.53-7.87 7.872 0 4.34 3.53 7.872 7.87 7.872s7.87-3.53 7.87-7.872c0-4.34-3.53-7.872-7.87-7.872zm5.21 9.21H9.897a.823.823 0 0 1-.823-.823V4.288a.823.823 0 0 1 1.646 0V9.69h4.493a.824.824 0 0 1 0 1.648z" class="cls-1"/></svg>