<svg xmlns="http://www.w3.org/2000/svg" preserveAspectRatio="xMidYMid" width="19.969" height="20" viewBox="0 0 19.969 20"><defs><style>.cls-1{fill:#db0520;fill-rule:evenodd}</style></defs><path d="M13.062 10l6.784-6.78a.417.417 0 0 0 0-.59L17.34.123a.417.417 0 0 0-.59 0l-6.784 6.78L3.18.125a.427.427 0 0 0-.588 0L.085 2.63a.417.417 0 0 0 0 .59L6.87 10 .084 16.784a.416.416 0 0 0 0 .59l2.507 2.505a.417.417 0 0 0 .59 0l6.784-6.782 6.784 6.782a.417.417 0 0 0 .59 0l2.506-2.506a.416.416 0 0 0 0-.59l-6.784-6.78z" class="cls-1"/></svg>