<svg xmlns="http://www.w3.org/2000/svg" preserveAspectRatio="xMidYMid" width="17.532" height="16.25" viewBox="0 0 17.532 16.25"><defs><style>.cls-1{fill:#fff;fill-rule:evenodd}</style></defs><path d="M14.43 15.938c-.196.207-.47.318-.744.318-.26 0-.533-.11-.745-.334a1.154 1.154 0 0 1 0-1.57c1.598-1.666 2.48-3.87 2.48-6.234s-.882-4.57-2.48-6.234a1.155 1.155 0 0 1 0-1.57c.426-.43 1.096-.43 1.49.015 2.01 2.093 3.104 4.853 3.104 7.804 0 2.95-1.11 5.726-3.103 7.804zM11.74 13.4a1.02 1.02 0 0 1-1.492.016 1.154 1.154 0 0 1 0-1.57c1.978-2.063 1.978-5.41 0-7.472a1.154 1.154 0 0 1 0-1.57c.41-.43 1.095-.43 1.506 0 2.814 2.934 2.814 7.693-.015 10.596zM7.28 14.987L3.95 12.385H.908c-.502 0-.913-.428-.913-.952v-6.63c0-.524.41-.952.913-.952H3.95l3.332-2.6c.593-.477 1.46-.033 1.46.76v12.215c0 .793-.852 1.237-1.46.762z" class="cls-1"/></svg>