<svg xmlns="http://www.w3.org/2000/svg" xmlns:xlink="http://www.w3.org/1999/xlink" preserveAspectRatio="xMidYMid" width="23" height="23" viewBox="0 0 23 23">
  <defs>
    <style>
      .cls-1 {
        fill: #b6b6b6;
        fill-rule: evenodd;
      }
    </style>
  </defs>
  <path d="M19.999,18.246 C20.000,17.918 20.001,18.199 19.999,18.246 ZM23.006,2.649 L14.880,10.775 C19.304,11.675 19.914,13.161 19.990,17.904 C19.995,18.220 19.997,18.274 19.999,18.246 C19.999,18.330 19.998,18.453 19.998,18.630 C19.998,18.630 18.821,21.000 12.000,21.000 C8.834,21.000 6.894,20.489 5.713,19.942 L2.649,23.006 L-0.006,20.351 L4.071,16.274 C4.308,12.638 5.330,11.448 9.680,10.664 L10.443,9.901 C8.876,9.148 7.764,7.303 7.764,5.135 C7.764,2.299 8.387,0.000 12.000,0.000 C15.179,0.000 16.041,1.782 16.202,4.142 L20.351,-0.006 L23.006,2.649 Z" class="cls-1"/>
</svg>
