<svg xmlns="http://www.w3.org/2000/svg" xmlns:xlink="http://www.w3.org/1999/xlink" preserveAspectRatio="xMidYMid" width="20" height="20" viewBox="0 0 20 20">
  <defs>
    <style>
      .cls-1 {
        fill: #8f4794;
        fill-rule: evenodd;
      }
    </style>
  </defs>
  <path d="M18.167,20.000 L1.833,20.000 C0.821,20.000 -0.000,19.187 -0.000,18.197 L-0.000,4.018 C-0.000,3.046 0.803,2.256 1.780,2.227 L1.780,4.646 C1.780,5.740 2.687,6.621 3.806,6.621 L5.083,6.621 C6.201,6.621 7.121,5.740 7.121,4.646 L7.121,2.218 L12.879,2.218 L12.879,4.646 C12.879,5.740 13.799,6.621 14.917,6.621 L16.194,6.621 C17.313,6.621 18.220,5.740 18.220,4.646 L18.220,2.227 C19.197,2.256 20.000,3.046 20.000,4.018 L20.000,18.197 C20.000,19.185 19.178,20.000 18.167,20.000 ZM17.626,17.314 L17.626,9.990 C17.626,9.562 17.272,9.215 16.834,9.215 L3.131,9.215 C2.693,9.215 2.339,9.562 2.339,9.990 L2.339,17.314 C2.339,17.742 2.694,18.089 3.131,18.089 L16.834,18.089 C17.272,18.089 17.626,17.742 17.626,17.314 L17.626,17.314 ZM14.859,17.031 L13.239,17.031 C12.983,17.031 12.775,16.828 12.775,16.577 L12.775,14.993 C12.775,14.742 12.983,14.540 13.239,14.540 L14.859,14.540 C15.115,14.540 15.323,14.742 15.323,14.993 L15.323,16.577 C15.323,16.828 15.115,17.031 14.859,17.031 ZM14.859,13.072 L13.239,13.072 C12.983,13.072 12.775,12.869 12.775,12.618 L12.775,11.034 C12.775,10.783 12.983,10.580 13.239,10.580 L14.859,10.580 C15.115,10.580 15.323,10.783 15.323,11.034 L15.323,12.618 C15.323,12.869 15.115,13.072 14.859,13.072 ZM10.810,17.031 L9.190,17.031 C8.934,17.031 8.726,16.828 8.726,16.577 L8.726,14.993 C8.726,14.742 8.934,14.540 9.190,14.540 L10.810,14.540 C11.066,14.540 11.274,14.742 11.274,14.993 L11.274,16.577 C11.274,16.828 11.066,17.031 10.810,17.031 ZM10.810,13.072 L9.190,13.072 C8.934,13.072 8.726,12.869 8.726,12.618 L8.726,11.034 C8.726,10.783 8.934,10.580 9.190,10.580 L10.810,10.580 C11.066,10.580 11.274,10.783 11.274,11.034 L11.274,12.618 C11.274,12.869 11.066,13.072 10.810,13.072 ZM6.761,17.031 L5.141,17.031 C4.885,17.031 4.677,16.828 4.677,16.577 L4.677,14.993 C4.677,14.742 4.885,14.540 5.141,14.540 L6.761,14.540 C7.018,14.540 7.225,14.742 7.225,14.993 L7.225,16.577 C7.225,16.828 7.018,17.031 6.761,17.031 ZM6.761,13.072 L5.141,13.072 C4.885,13.072 4.677,12.869 4.677,12.618 L4.677,11.034 C4.677,10.783 4.885,10.580 5.141,10.580 L6.761,10.580 C7.018,10.580 7.225,10.783 7.225,11.034 L7.225,12.618 C7.225,12.869 7.018,13.072 6.761,13.072 ZM16.164,5.324 L14.901,5.324 C14.517,5.324 14.206,5.020 14.206,4.645 L14.206,0.679 C14.206,0.304 14.517,-0.000 14.901,-0.000 L16.164,-0.000 C16.548,-0.000 16.859,0.304 16.859,0.679 L16.859,4.645 C16.859,5.020 16.548,5.324 16.164,5.324 ZM5.065,5.324 L3.801,5.324 C3.417,5.324 3.106,5.020 3.106,4.645 L3.106,0.679 C3.106,0.304 3.417,-0.000 3.801,-0.000 L5.065,-0.000 C5.448,-0.000 5.759,0.304 5.759,0.679 L5.759,4.645 C5.759,5.020 5.448,5.324 5.065,5.324 Z" class="cls-1"/>
</svg>
