<svg xmlns="http://www.w3.org/2000/svg" xmlns:xlink="http://www.w3.org/1999/xlink" preserveAspectRatio="xMidYMid" width="20" height="20" viewBox="0 0 20 20">
  <defs>
    <style>
      .cls-1 {
        fill: #8f4794;
        fill-rule: evenodd;
      }
    </style>
  </defs>
  <path d="M10.003,20.000 C4.490,20.000 0.005,15.514 0.005,10.000 C0.005,4.486 4.490,-0.000 10.003,-0.000 C15.515,-0.000 20.000,4.486 20.000,10.000 C20.000,15.514 15.515,20.000 10.003,20.000 ZM10.003,2.128 C5.663,2.128 2.132,5.659 2.132,10.000 C2.132,14.341 5.663,17.872 10.003,17.872 C14.342,17.872 17.873,14.341 17.873,10.000 C17.873,5.659 14.342,2.128 10.003,2.128 ZM15.213,11.338 L9.897,11.338 C9.442,11.338 9.074,10.969 9.074,10.515 L9.074,4.288 C9.074,3.833 9.442,3.464 9.897,3.464 C10.352,3.464 10.720,3.833 10.720,4.288 L10.720,9.691 L15.213,9.691 C15.667,9.691 16.036,10.060 16.036,10.515 C16.036,10.969 15.667,11.338 15.213,11.338 Z" class="cls-1"/>
</svg>
