<svg xmlns="http://www.w3.org/2000/svg" xmlns:xlink="http://www.w3.org/1999/xlink" preserveAspectRatio="xMidYMid" width="19.969" height="20" viewBox="0 0 19.969 20">
  <defs>
    <style>
      .cls-1 {
        fill: #db0520;
        fill-rule: evenodd;
      }
    </style>
  </defs>
  <path d="M13.062,10.001 L19.846,3.219 C20.009,3.056 20.009,2.792 19.846,2.629 L17.340,0.124 C17.261,0.045 17.155,0.001 17.045,0.001 C16.934,0.001 16.828,0.045 16.750,0.124 L9.966,6.905 L3.181,0.124 C3.025,-0.033 2.748,-0.033 2.592,0.124 L0.085,2.629 C-0.078,2.792 -0.078,3.056 0.085,3.219 L6.869,10.001 L0.085,16.783 C-0.078,16.945 -0.078,17.209 0.085,17.372 L2.592,19.878 C2.670,19.956 2.776,20.000 2.887,20.000 C2.997,20.000 3.103,19.956 3.181,19.878 L9.966,13.096 L16.750,19.878 C16.828,19.956 16.934,20.000 17.045,20.000 C17.155,20.000 17.261,19.956 17.340,19.878 L19.846,17.372 C20.009,17.209 20.009,16.946 19.846,16.783 L13.062,10.001 Z" class="cls-1"/>
</svg>
