<svg xmlns="http://www.w3.org/2000/svg" xmlns:xlink="http://www.w3.org/1999/xlink" preserveAspectRatio="xMidYMid" width="17.532" height="16.25" viewBox="0 0 17.532 16.25">
  <defs>
    <style>
      .cls-1 {
        fill: #fff;
        fill-rule: evenodd;
      }
    </style>
  </defs>
  <path d="M14.431,15.938 C14.234,16.145 13.960,16.256 13.686,16.256 C13.427,16.256 13.153,16.145 12.941,15.922 C12.530,15.494 12.530,14.780 12.941,14.352 C14.538,12.686 15.420,10.481 15.420,8.118 C15.420,5.754 14.538,3.549 12.941,1.884 C12.530,1.455 12.530,0.741 12.941,0.313 C13.366,-0.115 14.036,-0.115 14.431,0.329 C16.439,2.423 17.534,5.183 17.534,8.134 C17.534,11.084 16.424,13.860 14.431,15.938 ZM11.739,13.400 C11.541,13.622 11.252,13.733 10.993,13.733 C10.735,13.733 10.461,13.638 10.248,13.416 C9.837,12.988 9.837,12.274 10.248,11.846 C12.226,9.783 12.226,6.436 10.248,4.374 C9.837,3.946 9.837,3.232 10.248,2.804 C10.659,2.375 11.343,2.375 11.754,2.804 C14.568,5.738 14.568,10.497 11.739,13.400 ZM7.282,14.987 L3.950,12.385 L0.908,12.385 C0.406,12.385 -0.005,11.957 -0.005,11.433 L-0.005,4.802 C-0.005,4.279 0.406,3.851 0.908,3.851 L3.950,3.851 L7.282,1.249 C7.875,0.773 8.742,1.217 8.742,2.011 L8.742,14.225 C8.742,15.018 7.890,15.462 7.282,14.987 Z" class="cls-1"/>
</svg>
